<svg width="308" height="308" viewBox="0 0 308 308" fill="none" xmlns="http://www.w3.org/2000/svg">
<rect width="308" height="308" fill="#F3F5F7"/>
<path d="M184.042 168.667C188.119 168.667 192.03 170.287 194.913 173.17C197.796 176.053 199.417 179.964 199.417 184.042C199.417 188.12 197.796 192.03 194.913 194.913C192.03 197.796 188.12 199.417 184.042 199.417C179.964 199.417 176.053 197.796 173.17 194.913C170.287 192.03 168.667 188.12 168.667 184.042C168.667 179.964 170.287 176.053 173.17 173.17C176.053 170.287 179.964 168.667 184.042 168.667ZM179.75 112.875C183.828 112.875 187.739 114.495 190.622 117.378C193.505 120.261 195.125 124.172 195.125 128.25V156.146C195.125 157.526 194.006 158.646 192.625 158.646C191.244 158.646 190.125 157.526 190.125 156.146V128.25C190.125 125.498 189.032 122.86 187.086 120.914C185.14 118.968 182.502 117.875 179.75 117.875H128.25C125.498 117.875 122.86 118.968 120.914 120.914C118.968 122.86 117.875 125.498 117.875 128.25V165.131L135.065 147.94C135.077 147.929 135.088 147.918 135.1 147.907C137.466 145.63 140.286 144.334 143.271 144.334C146.069 144.334 148.722 145.472 150.993 147.491L151.441 147.907L151.477 147.94L162.583 159.047L165.107 156.523L165.142 156.49C168.31 153.441 172.259 152.203 176.179 153.321C177.506 153.7 178.275 155.083 177.896 156.411C177.518 157.739 176.134 158.508 174.807 158.129C172.894 157.583 170.735 158.051 168.619 160.082L164.352 164.352C163.883 164.82 163.246 165.083 162.583 165.083C161.92 165.083 161.284 164.82 160.815 164.352L147.961 151.497C146.349 149.952 144.728 149.334 143.271 149.334C141.817 149.334 140.199 149.948 138.591 151.486L117.875 172.202V179.75C117.875 182.502 118.968 185.14 120.914 187.086C122.86 189.032 125.498 190.125 128.25 190.125H156.146C157.526 190.125 158.646 191.244 158.646 192.625C158.646 194.006 157.526 195.125 156.146 195.125H128.25C124.172 195.125 120.261 193.505 117.378 190.622C114.495 187.739 112.875 183.828 112.875 179.75V128.25C112.875 124.172 114.495 120.261 117.378 117.378C120.261 114.495 124.172 112.875 128.25 112.875H179.75ZM178.689 192.929C180.292 193.894 182.14 194.417 184.042 194.417C186.793 194.417 189.432 193.324 191.378 191.378C193.324 189.432 194.417 186.793 194.417 184.042C194.417 182.14 193.894 180.292 192.929 178.689L178.689 192.929ZM184.042 173.667C181.29 173.667 178.651 174.759 176.705 176.705C174.759 178.651 173.667 181.29 173.667 184.042C173.667 185.943 174.19 187.79 175.154 189.393L189.393 175.154C187.79 174.19 185.943 173.667 184.042 173.667ZM166.918 134.333C168.299 134.333 169.418 135.452 169.418 136.833C169.418 138.214 168.299 139.333 166.918 139.333H166.875C165.494 139.333 164.375 138.214 164.375 136.833C164.375 135.452 165.494 134.333 166.875 134.333H166.918Z" fill="#6C7275" fill-opacity="0.25"/>
</svg>
