<svg width="63" height="63" viewBox="0 0 63 63" fill="none" xmlns="http://www.w3.org/2000/svg">
<rect width="63" height="63" rx="31.5" fill="white"/>
<path d="M47.7422 45.4305C46.8049 45.4305 46.0279 45.1469 45.4112 44.5795C44.8192 43.9875 44.5232 43.2599 44.5232 42.3965C44.5232 41.5332 44.8192 40.8179 45.4112 40.2505C46.0279 39.6585 46.8049 39.3625 47.7422 39.3625C48.6549 39.3625 49.4072 39.6585 49.9992 40.2505C50.5912 40.8179 50.8872 41.5332 50.8872 42.3965C50.8872 43.2599 50.5912 43.9875 49.9992 44.5795C49.4072 45.1469 48.6549 45.4305 47.7422 45.4305Z" fill="#6C7275"/>
<path d="M40.3303 17.7917V45.1717H35.1503V17.7917H40.3303Z" fill="#141718"/>
<path d="M12.4829 25.3026C12.6062 22.8359 13.4696 20.9366 15.0729 19.6046C16.7009 18.2479 18.8346 17.5696 21.4739 17.5696C23.2746 17.5696 24.8162 17.8902 26.0989 18.5316C27.3816 19.1482 28.3436 19.9992 28.9849 21.0846C29.6509 22.1452 29.9839 23.3539 29.9839 24.7106C29.9839 26.2646 29.5769 27.5842 28.7629 28.6696C27.9736 29.7302 27.0239 30.4456 25.9139 30.8156V30.9636C27.3446 31.4076 28.4546 32.1969 29.2439 33.3316C30.0579 34.4662 30.4649 35.9216 30.4649 37.6976C30.4649 39.1776 30.1196 40.4972 29.4289 41.6566C28.7629 42.8159 27.7639 43.7286 26.4319 44.3946C25.1246 45.0359 23.5459 45.3566 21.6959 45.3566C18.9086 45.3566 16.6392 44.6536 14.8879 43.2476C13.1366 41.8416 12.2116 39.7696 12.1129 37.0316H17.1449C17.1942 38.2402 17.6012 39.2146 18.3659 39.9546C19.1552 40.6699 20.2282 41.0276 21.5849 41.0276C22.8429 41.0276 23.8049 40.6822 24.4709 39.9916C25.1616 39.2762 25.5069 38.3636 25.5069 37.2536C25.5069 35.7736 25.0382 34.7129 24.1009 34.0716C23.1636 33.4302 21.7082 33.1096 19.7349 33.1096H18.6619V28.8546H19.7349C23.2376 28.8546 24.9889 27.6829 24.9889 25.3396C24.9889 24.2789 24.6682 23.4526 24.0269 22.8606C23.4102 22.2686 22.5099 21.9726 21.3259 21.9726C20.1666 21.9726 19.2662 22.2932 18.6249 22.9346C18.0082 23.5512 17.6506 24.3406 17.5519 25.3026H12.4829Z" fill="#141718"/>
</svg>
